<svg fill="none" height="16" viewBox="0 0 17 16" width="17" xmlns="http://www.w3.org/2000/svg"><path clip-rule="evenodd" d="m16.5089 13.3-3.7792-3.83c.6943-.98 1.101-2.17 1.101-3.47 0-3.31-2.6683-6-5.9516-6s-5.95161 2.69-5.95161 6 2.66831 6 5.95161 6c1.28952 0 2.46-.41 3.442-1.11l3.7991 3.81c.1885.2.4464.3.6944.3s.5158-.09.6943-.3c.3869-.39.3869-1.02 0-1.41zm-8.6298-2.6c-2.56911 0-4.66209-2.11-4.66209-4.7s2.09298-4.7 4.66209-4.7c2.5691 0 4.6621 2.11 4.6621 4.7s-2.093 4.7-4.6621 4.7z" fill="#6a737d" fill-rule="evenodd"/></svg>