<svg height="23" viewBox="0 0 161 23" width="161" xmlns="http://www.w3.org/2000/svg"><g fill="none" fill-rule="evenodd"><path d="m75.859 17c5.145 0 6.636-3.402 6.636-7.875s-1.491-7.875-6.636-7.875h-4.284v15.75zm-2.856-14.427h2.94c3.78 0 5.04 2.772 5.04 6.552s-1.26 6.552-5.04 6.552h-2.94zm11.907 9.177c0 3.024.861 5.46 4.41 5.46 1.029 0 2.289-.105 3.465-.63v-1.26c-1.029.441-1.953.588-3.465.588-2.373 0-2.856-1.659-2.94-3.486h6.93v-.672c0-3.024-.42-5.46-3.99-5.46-3.549 0-4.41 2.436-4.41 5.46zm4.41-4.158c2.415 0 2.52 1.764 2.52 3.633h-5.46c.063-1.89.504-3.633 2.94-3.633zm5.565-1.092 4.095 10.71h1.05l4.095-10.71h-1.617l-3.003 8.61-3.003-8.61zm10.815 5.25c0 3.024.861 5.46 4.41 5.46 1.029 0 2.289-.105 3.465-.63v-1.26c-1.029.441-1.953.588-3.465.588-2.373 0-2.856-1.659-2.94-3.486h6.93v-.672c0-3.024-.42-5.46-3.99-5.46-3.549 0-4.41 2.436-4.41 5.46zm4.41-4.158c2.415 0 2.52 1.764 2.52 3.633h-5.46c.063-1.89.504-3.633 2.94-3.633zm9.156 9.618v-1.197c-.651 0-.882-.21-.882-.945v-13.818h-1.428v13.65c0 1.68.798 2.31 2.31 2.31zm11.004-5.46c0-3.213-.798-5.46-4.41-5.46-3.591 0-4.41 2.247-4.41 5.46s.819 5.46 4.41 5.46c3.612 0 4.41-2.247 4.41-5.46zm-1.47 0c0 2.373-.21 4.158-2.94 4.158-2.772 0-2.94-1.785-2.94-4.158s.168-4.158 2.94-4.158c2.73 0 2.94 1.785 2.94 4.158zm8.4 5.46c3.381 0 4.305-2.436 4.305-5.46s-.924-5.46-4.305-5.46c-1.134 0-2.184.378-3.276 1.071l-.315-.861h-.819v15.75h1.47v-5.901c.903.588 1.974.861 2.94.861zm0-1.302c-1.365 0-2.121-.231-2.94-.672v-6.972c.819-.441 1.575-.672 2.94-.672 2.52 0 2.835 2.079 2.835 4.158s-.315 4.158-2.835 4.158zm6.615-4.158c0 3.024.861 5.46 4.41 5.46 1.029 0 2.289-.105 3.465-.63v-1.26c-1.029.441-1.953.588-3.465.588-2.373 0-2.856-1.659-2.94-3.486h6.93v-.672c0-3.024-.42-5.46-3.99-5.46-3.549 0-4.41 2.436-4.41 5.46zm4.41-4.158c2.415 0 2.52 1.764 2.52 3.633h-5.46c.063-1.89.504-3.633 2.94-3.633zm12.285-1.197c-.399-.063-.777-.105-1.26-.105-1.176 0-2.394.357-3.381 1.092l-.315-.882h-.819v10.5h1.47v-8.736c.777-.441 1.617-.672 3.045-.672.525 0 .945.063 1.26.168z" fill="#b3bcc7"/><path d="m26.6832 14.443344h-.0288c.01296 0 .0216.01296.03456.01584.00144 0 .0072-.00144.00864-.00144zm.00576.01584c-.13392.00144-.47088.07056-.82656.07056-1.1232 0-1.512-.5184-1.512-1.1952v-4.5072h2.2896c.1296 0 .2304-.1152.2304-.2736v-2.448c0-.1296-.1152-.2448-.2304-.2448h-2.2896v-3.0384c0-.1152-.072-.1872-.2016-.1872h-3.1104c-.1296 0-.2016.072-.2016.1872v3.1248s-1.5696.3888-1.6704.4032c-.1152.0288-.1872.1296-.1872.2448v1.9584c0 .1584.1152.2736.2448.2736h1.5984v4.7232c0 3.5136 2.448 3.8736 4.1184 3.8736.7632 0 1.6848-.2448 1.8288-.3168.0864-.0288.1296-.1296.1296-.2304v-2.16c0-.14256-.09792-.2376-.21024-.25776zm34.12224-3.16944c0-2.6064-1.0512-2.952-2.16-2.8368-.864.0576-1.5552.4896-1.5552.4896v5.0688s.7056.4896 1.7568.5184c1.4832.0432 1.9584-.4896 1.9584-3.24zm3.4992-.2304c0 4.9392-1.5984 6.3504-4.392 6.3504-2.3616 0-3.6288-1.1952-3.6288-1.1952s-.0576.6624-.1296.7488c-.0432.0864-.1152.1152-.2016.1152h-2.1312c-.144 0-.2736-.1152-.2736-.2448l.0288-15.9984c0-.1296.1152-.2448.2448-.2448h3.0672c.1296 0 .2448.1152.2448.2448v5.4288s1.1808-.7632 2.9088-.7632l-.0144-.0288c1.728 0 4.2768.648 4.2768 5.5872zm-12.5568-5.1984h-.0144-3.0096c-.1584 0-.2448.1152-.2448.2736v7.8336s-.792.5616-1.872.5616-1.3968-.4896-1.3968-1.5696v-6.84c0-.1296-.1152-.2448-.2448-.2448h-3.0816c-.1296 0-.2448.1152-.2448.2448v7.3584c0 3.168 1.7712 3.96 4.2048 3.96 2.0016 0 3.6288-1.1088 3.6288-1.1088s.072.5616.1152.648c.0288.072.1296.1296.2304.1296h1.9296c.1584 0 .2448-.1152.2448-.2448l.0288-10.7568c0-.1296-.1152-.2448-.2736-.2448zm-34.128-.0144h-3.0672c-.1296 0-.2448.1296-.2448.288v10.5696c0 .288.1872.3888.432.3888h2.7648c.288 0 .36-.1296.36-.3888v-10.5984-.0144c0-.1296-.1152-.2448-.2448-.2448zm-1.512-4.8672c-1.1088 0-1.9872.8784-1.9872 1.9872s.8784 1.9872 1.9872 1.9872c1.08 0 1.9584-.8784 1.9584-1.9872s-.8784-1.9872-1.9584-1.9872zm23.7456-.36h-3.0384c-.1296 0-.2448.1152-.2448.2448v5.8896h-4.7664v-5.8896c0-.1296-.1152-.2448-.2448-.2448h-3.0672c-.1296 0-.2448.1152-.2448.2448v15.9984c0 .1296.1296.2448.2448.2448h3.0672c.1296 0 .2448-.1152.2448-.2448v-6.84h4.7664l-.0288 6.84c0 .1296.1152.2448.2448.2448h3.0672c.1296 0 .2448-.1152.2448-.2448v-15.9984c0-.1296-.1152-.2448-.2448-.2448zm-27.1728 7.0848v8.2656c0 .0576-.0144.1584-.0864.1872 0 0-1.8 1.2816-4.7664 1.2816-3.5856 0-7.8336-1.1232-7.8336-8.5248s3.7152-8.928 7.344-8.9136c3.1392 0 4.4064.7056 4.608.8352.0576.072.0864.1296.0864.2016l-.6048 2.5632c0 .1296-.1296.288-.288.2448-.5184-.1584-1.296-.4752-3.1248-.4752-2.1168 0-4.392.6048-4.392 5.3712s2.16 5.328 3.7152 5.328c1.3248 0 1.8-.1584 1.8-.1584v-3.312h-2.1168c-.1584 0-.2736-.1152-.2736-.2448v-2.6496c0-.1296.1152-.2448.2736-.2448h5.3856c.1584 0 .2736.1152.2736.2448z" fill="#eef4fc"/></g></svg>