<svg height="365" viewBox="0 0 1253 365" width="1253" xmlns="http://www.w3.org/2000/svg" xmlns:xlink="http://www.w3.org/1999/xlink"><defs><path id="a" d="m246.571429 258h-41.142858c-1.885714 0-3.428571 1.542857-3.428571 3.428571v27.428572c0 1.885714 1.542857 3.428571 3.428571 3.428571h6.857143v12l12-12h22.285715c1.885714 0 3.428571-1.542857 3.428571-3.428571v-27.428572c0-1.885714-1.542857-3.428571-3.428571-3.428571zm0 30.857143h-24l-6.857143 6.857143v-6.857143h-10.285715v-27.428572h41.142858z"/><mask id="b" height="48.285714" width="50" x="-1" y="-1"><path d="m201 257h50v48.285714h-50z" fill="#fff"/><use xlink:href="#a"/></mask><circle id="c" cx="334" cy="223" r="3"/><mask id="d" height="20" width="20" x="-7" y="-7"><path d="m324 213h20v20h-20z" fill="#fff"/><use xlink:href="#c"/></mask><circle id="e" cx="348" cy="284" r="3"/><mask id="f" height="20" width="20" x="-7" y="-7"><path d="m338 274h20v20h-20z" fill="#fff"/><use xlink:href="#e"/></mask><circle id="g" cx="297" cy="176" r="3"/><mask id="h" height="20" width="20" x="-7" y="-7"><path d="m287 166h20v20h-20z" fill="#fff"/><use xlink:href="#g"/></mask><circle id="i" cx="337" cy="82" r="3"/><mask id="j" height="20" width="20" x="-7" y="-7"><path d="m327 72h20v20h-20z" fill="#fff"/><use xlink:href="#i"/></mask><circle id="k" cx="315" cy="130" r="3"/><mask id="l" height="20" width="20" x="-7" y="-7"><path d="m305 120h20v20h-20z" fill="#fff"/><use xlink:href="#k"/></mask><circle id="m" cx="223.5" cy="17.5" r="3"/><mask id="n" height="20" width="20" x="-7" y="-7"><path d="m213.5 7.5h20v20h-20z" fill="#fff"/><use xlink:href="#m"/></mask><circle id="o" cx="284.5" cy="3.5" r="3"/><mask id="p" height="20" width="20" x="-7" y="-7"><path d="m274.5-6.5h20v20h-20z" fill="#fff"/><use xlink:href="#o"/></mask><circle id="q" cx="176.5" cy="54.5" r="3"/><mask id="r" height="20" width="20" x="-7" y="-7"><path d="m166.5 44.5h20v20h-20z" fill="#fff"/><use xlink:href="#q"/></mask><circle id="s" cx="82.5" cy="14.5" r="3"/><mask id="t" height="20" width="20" x="-7" y="-7"><path d="m72.5 4.5h20v20h-20z" fill="#fff"/><use xlink:href="#s"/></mask><circle id="u" cx="130.5" cy="36.5" r="3"/><mask id="v" height="20" width="20" x="-7" y="-7"><path d="m120.5 26.5h20v20h-20z" fill="#fff"/><use xlink:href="#u"/></mask><circle id="w" cx="128.5" cy="333.5" r="3"/><mask id="x" height="20" width="20" x="-7" y="-7"><path d="m118.5 323.5h20v20h-20z" fill="#fff"/><use xlink:href="#w"/></mask><circle id="y" cx="67.5" cy="347.5" r="3"/><mask id="z" height="20" width="20" x="-7" y="-7"><path d="m57.5 337.5h20v20h-20z" fill="#fff"/><use xlink:href="#y"/></mask><circle id="A" cx="175.5" cy="296.5" r="3"/><mask id="B" height="20" width="20" x="-7" y="-7"><path d="m165.5 286.5h20v20h-20z" fill="#fff"/><use xlink:href="#A"/></mask><circle id="C" cx="269.5" cy="336.5" r="3"/><mask id="D" height="20" width="20" x="-7" y="-7"><path d="m259.5 326.5h20v20h-20z" fill="#fff"/><use xlink:href="#C"/></mask><circle id="E" cx="221.5" cy="314.5" r="3"/><mask id="F" height="20" width="20" x="-7" y="-7"><path d="m211.5 304.5h20v20h-20z" fill="#fff"/><use xlink:href="#E"/></mask><circle id="G" cx="17" cy="129" r="3"/><mask id="H" height="20" width="20" x="-7" y="-7"><path d="m7 119h20v20h-20z" fill="#fff"/><use xlink:href="#G"/></mask><circle id="I" cx="3" cy="68" r="3"/><mask id="J" height="20" width="20" x="-7" y="-7"><path d="m-7 58h20v20h-20z" fill="#fff"/><use xlink:href="#I"/></mask><circle id="K" cx="54" cy="176" r="3"/><mask id="L" height="20" width="20" x="-7" y="-7"><path d="m44 166h20v20h-20z" fill="#fff"/><use xlink:href="#K"/></mask><circle id="M" cx="14" cy="270" r="3"/><mask id="N" height="20" width="20" x="-7" y="-7"><path d="m4 260h20v20h-20z" fill="#fff"/><use xlink:href="#M"/></mask><circle id="O" cx="36" cy="222" r="3"/><mask id="P" height="20" width="20" x="-7" y="-7"><path d="m26 212h20v20h-20z" fill="#fff"/><use xlink:href="#O"/></mask><rect id="Q" height="138" rx="20" width="138"/><rect id="R" height="89" rx="10" width="89" x="133" y="131"/><filter id="S" height="200%" width="200%" x="-50%" y="-50%"><feOffset dx="0" dy="0" in="SourceAlpha" result="shadowOffsetOuter1"/><feGaussianBlur in="shadowOffsetOuter1" result="shadowBlurOuter1" stdDeviation="3"/><feColorMatrix in="shadowBlurOuter1" type="matrix" values="0 0 0 0 0   0 0 0 0 0   0 0 0 0 0  0 0 0 0.39 0"/></filter><mask id="T" fill="#fff"><use fill="#fff" fill-rule="evenodd" xlink:href="#Q"/></mask></defs><g fill="none" fill-rule="evenodd"><g transform="translate(0 17)"><use fill="#e5e5e5" fill-rule="evenodd" xlink:href="#a"/><use mask="url(#b)" stroke="#dddfe0" stroke-width="2" xlink:href="#a"/><g fill="#e5e5e5"><path d="m310.571429 55.4285714c0-3.7264285-2.987858-6.7142857-6.714286-6.7142857-3.726429 0-6.714286 2.9878572-6.714286 6.7142857 0 2.4507143 1.376429 4.6328572 3.357143 5.7742857v1.0071429c-.067143 1.7457143-.772143 3.29-2.115 4.6328571-1.342857 1.3428572-2.887143 2.0478572-4.632857 2.115-2.786429.0671429-4.968572.5371429-6.714286 1.5107143v-15.98c1.980714-1.1414285 3.357143-3.29 3.357143-5.7742857 0-3.7264286-2.987857-6.7142857-6.714286-6.7142857-3.726428 0-6.680714 2.9878571-6.680714 6.7142857 0 2.4507143 1.376429 4.6328572 3.357143 5.7742857v22.0228572c-1.980714 1.175-3.357143 3.3235714-3.357143 5.7742857 0 3.7264286 2.987857 6.7142857 6.714286 6.7142857 3.726428 0 6.714285-2.9878571 6.714285-6.7142857 0-1.7792857-.671428-3.3571429-1.779285-4.5657143.302143-.2014286 1.611428-1.3764286 1.980714-1.5778571.839286-.3692858 1.88-.5707143 3.155714-.5707143 3.525-.1678572 6.546429-1.5107143 9.232143-4.1964286s4.028572-6.6471429 4.196429-10.1385714h-.067143c2.047857-1.2085715 3.424286-3.3571429 3.424286-5.8078572zm-26.857143-10.7428571c2.215714 0 4.028571 1.8464286 4.028571 4.0285714 0 2.1821429-1.846428 4.0285714-4.028571 4.0285714s-4.028572-1.8464285-4.028572-4.0285714c0-2.1821428 1.846429-4.0285714 4.028572-4.0285714zm0 41.6621428c-2.215715 0-4.028572-1.8464285-4.028572-4.0285714 0-2.1821428 1.846429-4.0285714 4.028572-4.0285714s4.028571 1.8464286 4.028571 4.0285714c0 2.1821429-1.846428 4.0285714-4.028571 4.0285714zm20.142857-26.8571428c-2.215714 0-4.028572-1.8464286-4.028572-4.0285714 0-2.1821429 1.846429-4.0285715 4.028572-4.0285715s4.028571 1.8464286 4.028571 4.0285715c0 2.1821428-1.846428 4.0285714-4.028571 4.0285714z"/><path d="m135.769231 56.0769231h-7.076923v-7.0769231h7.076923zm14.153846 17.6923077h-35.384615c-1.946154 0-3.538462-1.5923077-3.538462-3.5384616v-7.076923c0-1.9461539 1.592308-3.5384616 3.538462-3.5384616h35.384615l7.076923 7.0769231zm-14.153846-10.6153846h-7.076923v7.076923h7.076923zm-7.076923 42.4615388h7.076923v-28.3076927h-7.076923z"/><path d="m120.714286 200c-4.122857 0-7.428572 3.305714-7.428572 7.428571 0 2.711429 1.522857 5.125715 3.714286 6.388572v4.754286l-7.428571 7.428571-7.428572-7.428571v-4.754286c2.191429-1.262857 3.714286-3.64 3.714286-6.388572 0-4.122857-3.305714-7.428571-7.4285716-7.428571-4.1228571 0-7.4285714 3.305714-7.4285714 7.428571 0 2.711429 1.5228571 5.125715 3.7142857 6.388572v6.611428l11.1428573 11.142858v6.611428c-2.191429 1.262857-3.714286 3.64-3.714286 6.388572 0 4.122857 3.305714 7.428571 7.428572 7.428571 4.122857 0 7.428571-3.305714 7.428571-7.428571 0-2.711429-1.522857-5.125715-3.714286-6.388572v-6.611428l11.142857-11.142858v-6.611428c2.191429-1.262857 3.714286-3.64 3.714286-6.388572 0-4.122857-3.305714-7.428571-7.428571-7.428571zm-22.2857146 11.885714c-2.4514285 0-4.4571428-2.042857-4.4571428-4.457143 0-2.414285 2.0428571-4.457142 4.4571428-4.457142 2.4142856 0 4.4571426 2.042857 4.4571426 4.457142 0 2.414286-2.042857 4.457143-4.4571426 4.457143zm11.1428576 37.142857c-2.451429 0-4.457143-2.042857-4.457143-4.457142 0-2.414286 2.042857-4.457143 4.457143-4.457143 2.414285 0 4.457142 2.042857 4.457142 4.457143 0 2.414285-2.042857 4.457142-4.457142 4.457142zm11.142857-37.142857c-2.451429 0-4.457143-2.042857-4.457143-4.457143 0-2.414285 2.042857-4.457142 4.457143-4.457142 2.414285 0 4.457143 2.042857 4.457143 4.457142 0 2.414286-2.042858 4.457143-4.457143 4.457143z"/><path d="m1253 159.532857v-3.2l-3.88-1.28-.9-2.18 1.76-3.68-2.26-2.26-3.62 1.82-2.18-.9-1.38-3.84h-3.2l-1.26 3.88-2.22.9-3.68-1.76-2.26 2.26 1.82 3.62-.9 2.18-3.84 1.36v3.18l3.88 1.28.9 2.18-1.76 3.68 2.26 2.26 3.62-1.82 2.18.9 1.38 3.84h3.18l1.26-3.88 2.22-.9 3.68 1.76 2.26-2.26-1.84-3.62.94-2.18 3.84-1.38zm-14 4.46c-3.32 0-6-2.68-6-6s2.68-6 6-6 6 2.68 6 6-2.68 6-6 6z"/><path d="m1077 159h10v10h-10zm10-30h-10v25h10zm7.5 7.5-5 5 12.5 12.5 20-22.5-5-5-15 17.5zm-12.5 41c-15.7 0-28.5-12.8-28.5-28.5s12.8-28.5 28.5-28.5c9.15 0 17.25 4.4 22.5 11l4.6-4.6c-6.4-7.9-16.15-12.9-27.1-12.9-19.3 0-35 15.7-35 35s15.7 35 35 35 35-15.7 35-35l-7.6 7.6c-3.3 12.05-14.3 20.95-27.4 20.95z"/><path d="m337 212.75h-6.75v-6.75h6.75zm0-20.25h-6.75v6.75h6.75zm0-13.5h-6.75v6.75h6.75zm0-13.5h-6.75v6.75h6.75zm54-6.75v81c0 3.7125-3.0375 6.75-6.75 6.75h-33.75v13.5l-10.125-10.125-10.125 10.125v-13.5h-13.5c-3.7125 0-6.75-3.0375-6.75-6.75v-81c0-3.7125 3.0375-6.75 6.75-6.75h67.5c3.7125 0 6.75 3.0375 6.75 6.75zm-6.75 67.5h-67.5v13.5h13.5v-6.75h20.25v6.75h33.75zm0-67.5h-60.75v60.75h60.75z"/><path d="m219.234286 141.285714c-1.542857-5.897143-6.857143-10.285714-13.234286-10.285714s-11.691429 4.388571-13.234286 10.285714h-10.765714v6.857143h10.765714c1.542857 5.897143 6.857143 10.285714 13.234286 10.285714s11.691429-4.388571 13.234286-10.285714h10.765714v-6.857143zm-13.234286 10.971429c-4.182857 0-7.542857-3.36-7.542857-7.542857s3.36-7.542857 7.542857-7.542857 7.542857 3.36 7.542857 7.542857-3.36 7.542857-7.542857 7.542857z"/><path d="m951.142857 272.142857h-3.428571c-.925715-.068571-1.645715-.377143-2.365715-1.062857s-1.028571-1.44-1.062857-2.365714v-21.531429c2.022857-1.165714 3.428572-3.36 3.428572-5.897143 0-3.805714-3.051429-6.857143-6.857143-6.857143s-6.857143 3.051429-6.857143 6.857143c0 2.502857 1.405714 4.731429 3.428571 5.897143v21.531429c.102858 2.674285 1.165715 5.04 3.222858 7.062857 2.057142 2.022857 4.388571 3.12 7.062857 3.222857h3.428571v6.857143l10.285714-10.285714-10.285714-10.285715zm-10.285714-34.971428c2.262857 0 4.114286 1.885714 4.114286 4.114285 0 2.228572-1.885715 4.114286-4.114286 4.114286-2.228572 0-4.114286-1.885714-4.114286-4.114286 0-2.228571 1.885714-4.114285 4.114286-4.114285zm37.714286 32.502857v-21.531429c-.102858-2.674286-1.165715-5.04-3.222858-7.062857-2.057142-2.022857-4.388571-3.12-7.062857-3.222857h-3.428571v-6.857143l-10.285714 10.285714 10.285714 10.285715v-6.857143h3.428571c.925715.068571 1.645715.377143 2.365715 1.062857s1.028571 1.44 1.062857 2.365714v21.531429c-2.022857 1.165714-3.428572 3.36-3.428572 5.897143 0 3.805714 3.051429 6.857142 6.857143 6.857142s6.857143-3.051428 6.857143-6.857142c0-2.502858-1.405714-4.731429-3.428571-5.897143zm-3.428572 10.011428c-2.262857 0-4.114286-1.885714-4.114286-4.114285 0-2.228572 1.885715-4.114286 4.114286-4.114286 2.228572 0 4.114286 1.885714 4.114286 4.114286 0 2.228571-1.885714 4.114285-4.114286 4.114285z"/><path d="m1184 46.01c-2.19 0-4.14 1.23-5.19 3.06v-.06c-3.15-.06-6.81-1.08-9.39-3.06-2.25-1.74-4.5-4.83-5.67-7.32 1.35-1.08 2.25-2.76 2.25-4.65 0-3.33-2.67-6-6-6s-6 2.7-6 6.03c0 2.19 1.23 4.14 3 5.16v19.68c-1.77 1.05-3 2.97-3 5.16 0 3.33 2.67 6 6 6s6-2.67 6-6c0-2.19-1.23-4.14-3-5.16v-10.83c2.01 2.1 4.32 3.81 6.9 5.07s6.09 1.89 8.91 1.92v-.06c1.08 1.83 3 3.06 5.19 3.06 3.33 0 6-2.67 6-6s-2.67-6-6-6zm-20.4 18c0 1.98-1.65 3.6-3.6 3.6s-3.6-1.65-3.6-3.6 1.65-3.6 3.6-3.6 3.6 1.65 3.6 3.6zm-3.6-26.4c-1.98 0-3.6-1.65-3.6-3.6s1.65-3.6 3.6-3.6 3.6 1.65 3.6 3.6-1.65 3.6-3.6 3.6zm24 18c-1.98 0-3.6-1.65-3.6-3.6s1.65-3.6 3.6-3.6 3.6 1.65 3.6 3.6-1.65 3.6-3.6 3.6z"/><path d="m988 33.84v-18.84c-.09-2.34-1.02-4.41-2.82-6.18s-3.84-2.73-6.18-2.82h-3v-6l-9 9 9 9v-6h3c.81.06 1.44.33 2.07.93s.9 1.26.93 2.07v18.84c-1.77 1.02-3 2.94-3 5.16 0 3.33 2.67 6 6 6s6-2.67 6-6c0-2.19-1.23-4.14-3-5.16zm-3 8.76c-1.98 0-3.6-1.65-3.6-3.6s1.65-3.6 3.6-3.6 3.6 1.65 3.6 3.6-1.65 3.6-3.6 3.6zm-18-33.6c0-3.33-2.67-6-6-6s-6 2.67-6 6c0 2.19 1.23 4.14 3 5.16v19.68c-1.77 1.02-3 2.94-3 5.16 0 3.33 2.67 6 6 6s6-2.67 6-6c0-2.19-1.23-4.14-3-5.16v-19.68c1.77-1.02 3-2.94 3-5.16zm-2.4 30c0 1.98-1.65 3.6-3.6 3.6s-3.6-1.65-3.6-3.6 1.65-3.6 3.6-3.6 3.6 1.65 3.6 3.6zm-3.6-26.4c-1.98 0-3.6-1.65-3.6-3.6s1.65-3.6 3.6-3.6 3.6 1.65 3.6 3.6-1.65 3.6-3.6 3.6z"/><path d="m851 92.2857143v50.2857147c0 3.457142 2.828571 6.285714 6.285714 6.285714h75.428572c3.457143 0 6.285714-2.828572 6.285714-6.285714v-50.2857147c0-3.4571429-2.828571-6.2857143-6.285714-6.2857143h-75.428572c-3.457143 0-6.285714 2.8285714-6.285714 6.2857143zm81.714286 0-37.714286 31.4285717-37.714286-31.4285717zm-75.428572 9.4285717 25.142857 18.857143-25.142857 18.857142zm6.285715 40.857143 22-18.857143 9.428571 9.428571 9.428571-9.428571 22 18.857143zm69.142857-3.142858-25.142857-18.857142 25.142857-18.857143z"/><path d="m1111.94625 249.05375c-.70875-.70875-1.23375-1.44375-1.65375-2.31-.42-.81375-.70875-1.7325-.8925-2.6775-1.5225.86625-3.045 1.8375-4.54125 2.96625-1.5225 1.155-2.9925 2.4675-4.43625 3.885-1.8375 1.8375-3.49125 4.75125-4.6725 6.43125h-7.875l-7.875 7.90125h7.875l5.25-5.25c-.8925 2.02125-2.6775 7.8225-2.625 7.875l2.625 2.625c.0525.0525 5.85375-1.68 7.875-2.625l-5.25 5.25v7.875l7.875-7.875v-7.875c1.68-1.18125 4.59375-2.86125 6.43125-4.6725 1.44375-1.44375 2.75625-2.96625 3.85875-4.4625 1.155-1.5225 2.12625-3.045 2.9925-4.515-.945-.21-1.8375-.49875-2.70375-.8925-.81375-.42-1.54875-.945-2.2575-1.65375m10.05375-10.05375s-.23625.9975-.7875 2.7825c-.525 1.8375-1.44375 4.1475-2.7825 6.9825-1.8375-.21-3.33375-.86625-4.3575-1.89s-1.65375-2.4675-1.8375-4.305c2.835-1.365 5.11875-2.31 6.93-2.835 1.8375-.525 2.835-.735 2.835-.735"/><path d="m25 150.928571-8.75-1.142857-3.75-7.785714-3.75 7.785714-8.75 1.142857 6.42857143 5.821429-1.66071429 8.464286 7.73214286-4.160715 7.7321429 4.160715-1.6607143-8.464286z"/></g></g><g transform="translate(453 7)"><path d="m333.997384 223h-93.997384" stroke="#e5e5e5" stroke-width="7" transform="matrix(-1 0 0 -1 573.997384 446)"/><g transform="matrix(-1 0 0 -1 668 446)"><use fill="#f5f5f5" fill-rule="evenodd" xlink:href="#c"/><use mask="url(#d)" stroke="#e5e5e5" stroke-width="14" xlink:href="#c"/></g><path d="m338.256299 284h-40.993019c-1.66071 0-3.006981-1.3364-3.006981-3.001976v-77.996048c0-1.657946-1.339116-3.001976-2.997787-3.001976h-27.258512" stroke="#e5e5e5" stroke-width="7" transform="matrix(-1 0 0 -1 602.256298 484)"/><g transform="matrix(-1 0 0 -1 696 568)"><use fill="#f5f5f5" fill-rule="evenodd" xlink:href="#e"/><use mask="url(#f)" stroke="#e5e5e5" stroke-width="14" xlink:href="#e"/></g><path d="m293.993019 176h-42.998328" stroke="#e5e5e5" stroke-width="7" transform="matrix(-1 0 0 -1 546.99302 352)"/><g transform="matrix(-1 0 0 -1 594 352)"><use fill="#f5f5f5" fill-rule="evenodd" xlink:href="#g"/><use mask="url(#h)" stroke="#e5e5e5" stroke-width="14" xlink:href="#g"/></g><path d="m337 90.6673372h-71.00746c-1.652734 0-2.99254 1.3452726-2.99254 3.0064339v59.3262289" stroke="#e5e5e5" stroke-width="7" transform="matrix(-1 0 0 -1 600 243.667338)"/><g transform="matrix(-1 0 0 -1 674 164)"><use fill="#f5f5f5" fill-rule="evenodd" xlink:href="#i"/><use mask="url(#j)" stroke="#e5e5e5" stroke-width="14" xlink:href="#i"/></g><path d="m306.993194 130h-52.993194" stroke="#e5e5e5" stroke-width="7" transform="matrix(-1 0 0 -1 560.993194 260)"/><g transform="matrix(-1 0 0 -1 630 260)"><use fill="#f5f5f5" fill-rule="evenodd" xlink:href="#k"/><use mask="url(#l)" stroke="#e5e5e5" stroke-width="14" xlink:href="#k"/></g><path d="m270.498692 64.501308h-93.997384" stroke="#e5e5e5" stroke-width="7" transform="matrix(0 1 -1 0 288.001308 -158.998692)"/><g transform="matrix(0 1 -1 0 241 -206)"><use fill="#f5f5f5" fill-rule="evenodd" xlink:href="#m"/><use mask="url(#n)" stroke="#e5e5e5" stroke-width="14" xlink:href="#m"/></g><path d="m279.628149 92.3718506h-40.993019c-1.660709 0-3.006981-1.3363997-3.006981-3.0019759v-77.9960481c0-1.65794553-1.339115-3.00197595-2.997786-3.00197595h-27.258512" stroke="#e5e5e5" stroke-width="7" transform="matrix(0 1 -1 0 292.871851 -192.128149)"/><g transform="matrix(0 1 -1 0 288 -281)"><use fill="#f5f5f5" fill-rule="evenodd" xlink:href="#o"/><use mask="url(#p)" stroke="#e5e5e5" stroke-width="14" xlink:href="#o"/></g><path d="m196.99651 78.0034904h-42.998328" stroke="#e5e5e5" stroke-width="7" transform="matrix(0 1 -1 0 254.50349 -98.49651)"/><g transform="matrix(0 1 -1 0 231 -122)"><use fill="#f5f5f5" fill-rule="evenodd" xlink:href="#q"/><use mask="url(#r)" stroke="#e5e5e5" stroke-width="14" xlink:href="#q"/></g><path d="m159.333669 20.3336686h-71.0074608c-1.652734 0-2.9925396 1.3452726-2.9925396 3.0064339v59.3262289" stroke="#e5e5e5" stroke-width="7" transform="matrix(0 1 -1 0 173.833669 -70.833669)"/><g transform="matrix(0 1 -1 0 97 -68)"><use fill="#f5f5f5" fill-rule="evenodd" xlink:href="#s"/><use mask="url(#t)" stroke="#e5e5e5" stroke-width="14" xlink:href="#s"/></g><path d="m156.996597 71.0034029h-52.993194" stroke="#e5e5e5" stroke-width="7" transform="matrix(0 1 -1 0 201.503403 -59.496597)"/><g transform="matrix(0 1 -1 0 167 -94)"><use fill="#f5f5f5" fill-rule="evenodd" xlink:href="#u"/><use mask="url(#v)" stroke="#e5e5e5" stroke-width="14" xlink:href="#u"/></g><path d="m175.498692 286.498692h-93.997384" stroke="#e5e5e5" stroke-width="7" transform="matrix(0 -1 1 0 -157.998692 414.998692)"/><g transform="matrix(0 -1 1 0 -205 462)"><use fill="#f5f5f5" fill-rule="evenodd" xlink:href="#w"/><use mask="url(#x)" stroke="#e5e5e5" stroke-width="14" xlink:href="#w"/></g><path d="m146.628149 342.628149h-40.993019c-1.660709 0-3.006981-1.336399-3.006981-3.001976v-77.996048c0-1.657945-1.339115-3.001976-2.9977861-3.001976h-27.2585123" stroke="#e5e5e5" stroke-width="7" transform="matrix(0 -1 1 0 -191.128149 410.128149)"/><g transform="matrix(0 -1 1 0 -280 415)"><use fill="#f5f5f5" fill-rule="evenodd" xlink:href="#y"/><use mask="url(#z)" stroke="#e5e5e5" stroke-width="14" xlink:href="#y"/></g><path d="m195.99651 272.99651h-42.998328" stroke="#e5e5e5" stroke-width="7" transform="matrix(0 -1 1 0 -97.49651 448.49651)"/><g transform="matrix(0 -1 1 0 -121 472)"><use fill="#f5f5f5" fill-rule="evenodd" xlink:href="#A"/><use mask="url(#B)" stroke="#e5e5e5" stroke-width="14" xlink:href="#A"/></g><path d="m266.666331 268.333669h-71.00746c-1.652734 0-2.99254 1.345272-2.99254 3.006433v59.326229" stroke="#e5e5e5" stroke-width="7" transform="matrix(0 -1 1 0 -69.833669 529.166331)"/><g transform="matrix(0 -1 1 0 -67 606)"><use fill="#f5f5f5" fill-rule="evenodd" xlink:href="#C"/><use mask="url(#D)" stroke="#e5e5e5" stroke-width="14" xlink:href="#C"/></g><path d="m247.996597 279.996597h-52.993194" stroke="#e5e5e5" stroke-width="7" transform="matrix(0 -1 1 0 -58.496597 501.496597)"/><g transform="matrix(0 -1 1 0 -93 536)"><use fill="#f5f5f5" fill-rule="evenodd" xlink:href="#E"/><use mask="url(#F)" stroke="#e5e5e5" stroke-width="14" xlink:href="#E"/></g><path d="m111 129h-93.9973841" stroke="#e5e5e5" stroke-width="7"/><use fill="#f5f5f5" fill-rule="evenodd" xlink:href="#G"/><use mask="url(#H)" stroke="#e5e5e5" stroke-width="14" xlink:href="#G"/><path d="m87 152h-40.9930191c-1.6607097 0-3.0069809-1.3364-3.0069809-3.001976v-77.996048c0-1.6579456-1.3391152-3.001976-2.9977864-3.001976h-27.2585123" stroke="#e5e5e5" stroke-width="7"/><use fill="#f5f5f5" fill-rule="evenodd" xlink:href="#I"/><use mask="url(#J)" stroke="#e5e5e5" stroke-width="14" xlink:href="#I"/><path d="m98 176h-42.9983277" stroke="#e5e5e5" stroke-width="7"/><use fill="#f5f5f5" fill-rule="evenodd" xlink:href="#K"/><use mask="url(#L)" stroke="#e5e5e5" stroke-width="14" xlink:href="#K"/><path d="m88 199h-71.0074604c-1.652734 0-2.9925396 1.345273-2.9925396 3.006434v59.326229" stroke="#e5e5e5" stroke-width="7"/><use fill="#f5f5f5" fill-rule="evenodd" xlink:href="#M"/><use mask="url(#N)" stroke="#e5e5e5" stroke-width="14" xlink:href="#M"/><path d="m97 222h-52.9931943" stroke="#e5e5e5" stroke-width="7"/><use fill="#f5f5f5" fill-rule="evenodd" xlink:href="#O"/><use mask="url(#P)" stroke="#e5e5e5" stroke-width="14" xlink:href="#O"/><g stroke-linecap="round" stroke-width="7"><path d="m264.001254 223h-20.001254" stroke="#3c4146" transform="matrix(-1 0 0 -1 508.001254 446)"/><path d="m264.001254 200h-20.001254" stroke="#3c4146" transform="matrix(-1 0 0 -1 508.001254 400)"/><path d="m264.001254 176h-20.001254" stroke="#3c4146" transform="matrix(-1 0 0 -1 508.001254 352)"/><path d="m264.001254 153h-20.001254" stroke="#3c4146" transform="matrix(-1 0 0 -1 508.001254 306)"/><path d="m264.001254 130h-20.001254" stroke="#3c4146" transform="matrix(-1 0 0 -1 508.001254 260)"/><path d="m233.500627 97.499373h-20.001254" stroke="#586169" transform="matrix(0 1 -1 0 320.999373 -126.000627)"/><path d="m210.500627 97.499373h-20.001254" stroke="#586169" transform="matrix(0 1 -1 0 297.999373 -103.000627)"/><path d="m186.500627 97.499373h-20.001254" stroke="#586169" transform="matrix(0 1 -1 0 273.999373 -79.000627)"/><path d="m163.500627 97.499373h-20.001254" stroke="#586169" transform="matrix(0 1 -1 0 250.999373 -56.000627)"/><path d="m140.500627 97.499373h-20.001254" stroke="#586169" transform="matrix(0 1 -1 0 227.999373 -33.000627)"/><path d="m138.500627 253.500627h-20.001254" stroke="#3c4146" transform="matrix(0 -1 1 0 -125.000627 382.000627)"/><path d="m161.500627 253.500627h-20.001254" stroke="#3c4146" transform="matrix(0 -1 1 0 -102.000627 405.000627)"/><path d="m185.500627 253.500627h-20.001254" stroke="#3c4146" transform="matrix(0 -1 1 0 -78.000627 429.000627)"/><path d="m208.500627 253.500627h-20.001254" stroke="#3c4146" transform="matrix(0 -1 1 0 -55.000627 452.000627)"/><path d="m231.500627 253.500627h-20.001254" stroke="#3c4146" transform="matrix(0 -1 1 0 -32.000627 475.000627)"/><path d="m107 129h-20.0012539" stroke="#586169"/><path d="m107 152h-20.0012539" stroke="#586169"/><path d="m107 176h-20.0012539" stroke="#586169"/><path d="m107 199h-20.0012539" stroke="#586169"/><path d="m107 222h-20.0012539" stroke="#586169"/></g><g transform="translate(107 107)"><use fill="#586069" xlink:href="#Q"/><path d="m138 0v138h-138z" fill="#3c4146" mask="url(#T)"/></g><path d="m107 162h15v26h-15z" fill="#2f3338"/><path d="m169 102h15v26h-15z" fill="#2f3338" transform="matrix(0 1 -1 0 291.5 -61.5)"/><use fill="#000" filter="url(#S)" xlink:href="#R"/><use fill="#fff" fill-rule="evenodd" xlink:href="#R"/><path d="m26 0c-14.365 0-26 11.635-26 26 0 11.505 7.4425 21.2225 17.7775 24.6675 1.3.2275 1.7875-.5525 1.7875-1.235 0-.6175-.0325-2.665-.0325-4.8425-6.5325 1.2025-8.2225-1.5925-8.7425-3.055-.2925-.7475-1.56-3.055-2.665-3.6725-.91-.4875-2.21-1.69-.0325-1.7225 2.0475-.0325 3.51 1.885 3.9975 2.665 2.34 3.9325 6.0775 2.8275 7.5725 2.145.2275-1.69.91-2.8275 1.6575-3.4775-5.785-.65-11.83-2.8925-11.83-12.8375 0-2.8275 1.0075-5.1675 2.665-6.9875-.26-.65-1.17-3.315.26-6.89 0 0 2.1775-.6825 7.15 2.665 2.08-.585 4.29-.8775 6.5-.8775s4.42.2925 6.5.8775c4.9725-3.38 7.15-2.665 7.15-2.665 1.43 3.575.52 6.24.26 6.89 1.6575 1.82 2.665 4.1275 2.665 6.9875 0 9.9775-6.0775 12.1875-11.8625 12.8375.9425.8125 1.755 2.3725 1.755 4.81 0 3.4775-.0325 6.2725-.0325 7.15 0 .6825.4875 1.495 1.7875 1.235 10.27-3.445 17.7125-13.195 17.7125-24.6675 0-14.365-11.635-26-26-26z" fill="#333" transform="translate(151 150)"/></g></g></svg>