<svg viewBox="0 0 1311.64 355.08" xmlns="http://www.w3.org/2000/svg"><path d="m78.58 355.08a78.58 78.58 0 1 1 78.57-78.58 78.67 78.67 0 0 1 -78.57 78.58zm0-124.3a45.73 45.73 0 1 0 45.72 45.72 45.77 45.77 0 0 0 -45.72-45.72z" fill="#58c4de" opacity=".85"/><circle cx="840.66" cy="79.73" fill="#3064a6" opacity=".7" r="78.37"/><circle cx="757.21" cy="127.43" fill="#58c4de" opacity=".71" r="61.54"/><path d="m229.628 43.29 128.836-43.31 43.308 128.836-128.836 43.308z" fill="#3064a6" opacity=".7"/><path d="m196.07 56.225 105.748 52.47-18.588 37.462-105.748-52.47z" fill="#fff"/><path d="m1161.37 145.04 150.27-137.89-19.13 278.03z" fill="#58c4de" opacity=".75"/><path d="m1123.94 186.9 144.82-40.73-50.43 92.45z" fill="#3064a6" opacity=".7"/><path d="m1059.06 133.91h-19.13a3.33 3.33 0 1 1 0-6.65h12.48v-15h14.59v-12.87h13.72v-16.22h13.28v-15.39a3.33 3.33 0 0 1 6.66 0v22h-13.31v16.22h-13.73v12.9h-14.56z" fill="#fff"/></svg>