<svg viewBox="0 0 1344.5 495.1" xmlns="http://www.w3.org/2000/svg"><circle cx="1265" cy="226.8" fill="#58c4de" opacity=".75" r="74.3"/><ellipse cx="1295.3" cy="305.7" fill="#3064a6" opacity=".7" rx="61.4" ry="61.4" transform="matrix(.40451918 -.91452951 .91452951 .40451918 491.752846 1366.681821)"/><path d="m1093.9 384.2c-51.6 9.6-85.6 59.3-76 110.9l186.9-34.9c-9.7-51.6-59.3-85.6-110.9-76z" fill="#fff"/><path d="m217.3 320.3c-33-35.5-88.6-37.5-124.1-4.5l119.6 128.6c35.5-33.1 37.5-88.6 4.5-124.1z" fill="#58c4de" opacity=".74"/><path d="m165.8 324.2c-19.9-71.6-94.2-113.6-165.8-93.6l72.2 259.4c71.6-19.9 113.5-94.2 93.6-165.8z" fill="#3064a6" opacity=".7"/><path d="m916.8 325.7c-.9 2.3-3.5 3.3-5.7 2.4l-6.6-2.7-4.3 10.7-10.7-4.4-3.9 9.7-11.2-4.5-4.1 10.2-10.7-4.4-4.6 11.2-16.8-6.9c-2.2-1-3.3-3.5-2.3-5.8.9-2.2 3.4-3.2 5.7-2.4l8.7 3.5 4.6-11.2 10.7 4.4 4.2-10.2 11.2 4.6 3.9-9.7 10.7 4.4 4.3-10.7 14.8 6c2 1 3.1 3.6 2.1 5.8z" fill="#58c4de"/><path d="m600.8 352.9 34.5 72.3c29.6-13.9 47.7-44.6 45.6-77.2-.7-11.6-2.4-19.4-7.5-29" fill="#fff" opacity=".75"/><path d="m568.1 280.4c-28.8 13.2-47.8 43.8-46 77.4.6 11.6 2.2 19.4 7.2 29.1l71.5-34" fill="#3064a6" opacity=".7"/><path d="m346.8 331.7-5.5-4.5c3-6.5.1-14.2-6.4-17.2-4.2-1.9-9.2-1.5-13 1.2l-5-4.1c-1.4-1.2-3.4-1-4.6.3-1.2 1.4-1 3.4.3 4.6l.1.1 5 4.1c-3 6.5-.1 14.2 6.4 17.2 4.2 1.9 9.2 1.5 12.9-1.2l5.5 4.5c1.4 1.1 3.5.8 4.5-.7 1.2-1.3 1-3.2-.2-4.3zm-21.3-5c-2.8-2.3-3.2-6.4-.9-9.2s6.4-3.2 9.2-.9 3.2 6.4.9 9.2c-2.4 2.8-6.5 3.2-9.2.9z" fill="#fff"/><path d="m1071.8 289.6c-9.1 0-16.4-7.3-16.4-16.4s7.3-16.4 16.4-16.4 16.4 7.3 16.4 16.4c0 9-7.3 16.3-16.4 16.4zm0-25.4c-5 0-9 4-9 9s4 9 9 9 9-4 9-9-4-9-9-9z" fill="#2976b3"/><path d="m680.9 347.8c-2.8-44-40.8-77.3-84.7-74.4-9.7.6-19.3 3-28.2 7.1l35.6 78.2 31.7 66.3c29.6-14 47.7-44.6 45.6-77.2z" fill="#58c4de" opacity=".79"/></svg>