<svg width="16" height="16" viewBox="0 0 16 16" fill="none" xmlns="http://www.w3.org/2000/svg">
<path fill-rule="evenodd" clip-rule="evenodd" d="M11.2 8C11.2 9.76731 9.76731 11.2 8 11.2C6.23269 11.2 4.8 9.76731 4.8 8C4.8 6.23269 6.23269 4.8 8 4.8C9.76731 4.8 11.2 6.23269 11.2 8ZM9.62429 13.7775C12.1488 13.0693 14 10.7508 14 8C14 4.68629 11.3137 2 8 2C4.68629 2 2 4.68629 2 8C2 10.7508 3.85117 13.0693 6.37571 13.7775L7.77441 15.2371C7.83334 15.2986 7.91483 15.3333 8 15.3333C8.08517 15.3333 8.16666 15.2986 8.22559 15.2371L9.62429 13.7775Z" fill="#FF8800"/>
</svg>
