<svg xmlns="http://www.w3.org/2000/svg" width="96" height="96"><circle cx="48" cy="48" r="48" fill="#fff"/><path fill="#24292f" fill-rule="evenodd" d="M47.969 4C23.655 4 4 23.8 4 48.295c0 19.58 12.594 36.155 30.065 42.021 2.184.441 2.984-.953 2.984-2.126 0-1.026-.072-4.546-.072-8.214-12.231 2.64-14.778-5.28-14.778-5.28-1.966-5.134-4.878-6.453-4.878-6.453-4.003-2.714.291-2.714.291-2.714 4.441.294 6.771 4.547 6.771 4.547 3.93 6.747 10.264 4.84 12.812 3.667.363-2.86 1.529-4.84 2.766-5.94-9.755-1.027-20.018-4.84-20.018-21.855 0-4.84 1.746-8.8 4.512-11.88-.436-1.1-1.965-5.647.438-11.734 0 0 3.712-1.174 12.083 4.547a42.273 42.273 0 0 1 10.993-1.467c3.712 0 7.497.514 10.991 1.467 8.372-5.72 12.085-4.547 12.085-4.547 2.403 6.087.873 10.634.436 11.734 2.84 3.08 4.514 7.04 4.514 11.88 0 17.015-10.264 20.754-20.092 21.855 1.602 1.393 2.984 4.033 2.984 8.213 0 5.94-.072 10.708-.072 12.174 0 1.173.801 2.567 2.985 2.127 17.47-5.868 30.064-22.441 30.064-42.022C91.936 23.8 72.21 4 47.97 4z" clip-rule="evenodd"/></svg>
